<?xml version="1.0" encoding="UTF-8"?>
<svg width="100pt" height="100pt" version="1.1" viewBox="0 0 100 100" xmlns="http://www.w3.org/2000/svg">
 <g>
  <path d="m22.801 98h54.398c6.8984 0 12.5-5.6016 12.5-12.5 0-4.1992-2.1016-8.1016-5.6016-10.5-5.6016-3.8008-10.699-6.6016-14-8.3008-3 3.6016-7 6.8008-12.199 8.6992-2.5 0.89844-5.1992 1.3984-7.8984 1.3984s-5.3008-0.39844-7.8008-1.3008c-5.1992-1.8008-9.3008-5-12.301-8.6992-3.3008 1.6992-8.3008 4.6016-14 8.3008-3.5 2.3008-5.6016 6.3008-5.6016 10.5 0.003906 6.8008 5.6016 12.402 12.504 12.402z"/>
  <path d="m24.5 45.5c0.60156 2 1.6016 5.8008 4 8 1.8008 6.6016 7 14.301 15.398 17.301 2 0.69922 4.1016 1.1016 6.3008 1.1016 2.1016 0 4.1992-0.39844 6.1992-1.1016 8.3984-3 13.602-10.602 15.398-17.301 2.3984-2.1992 3.3984-6 4-8 0.89844-3.1992 1.8008-7.6992-0.60156-10.898-0.10156-0.10156-0.19922-0.19922-0.30078-0.39844 0.19922-1.1016 0.30078-2.1992 0.39844-3.1992 2.8008-18.801-7.6016-20-8.8008-20-0.10156 0-0.10156-0.10156-0.19922-0.10156-1.1992-4.8984-8.1992-10-14.801-8.6992-6.4922 1.3984-20.094-0.20312-20.094-0.20312-0.19922 2.8984 2.3008 4.8984 2.3008 4.8984-11.5 7-9.3984 22-8.3008 27.301-0.10156 0.10156-0.19922 0.19922-0.30078 0.39844-2.3984 3.2031-1.4961 7.7031-0.59766 10.902zm6-8.8008h0.30078v-0.10156c-0.30078-1-1.6992-6.6992 3.1992-10.102 4 0.89844 10.102 1.1016 18.199-2.3984 15.801-6.7969 17.199 12.602 17.199 12.602h0.30078c1.6016 0 3.3008 1.3008 1.5 7.5-1.3984 4.8984-2.6992 6.3008-3.6016 6.3008-0.89844 5.8008-5.3984 13.199-12.801 15.801-1.5 0.5-3.1016 0.80078-4.6992 0.80078-1.6016 0-3.1992-0.30078-4.6992-0.80078-7.3008-2.6016-11.898-10-12.801-15.801-1-0.10156-2.3008-1.5-3.6016-6.3008-1.7969-6.3008-0.097656-7.5 1.5039-7.5z"/>
 </g>
</svg>
